<?xml version="1.0" encoding="UTF-8"?><svg id="mobile" xmlns="http://www.w3.org/2000/svg" viewBox="0 0 1024 1024"><defs><style>.cls-1{fill:#0aeb85;}</style></defs><circle class="cls-1" cx="739.39" cy="215.6" r="58.31"/><path d="M844.51,270.8c-13.26,25.15-35.27,44.97-61.97,55.42,36.42,52.87,57.77,116.87,57.77,185.78,0,181.03-147.28,328.31-328.31,328.31s-328.31-147.28-328.31-328.31,147.28-328.31,328.31-328.31c38.33,0,75.14,6.63,109.37,18.75,3.23-29.21,17.1-55.26,37.64-74.18-45.67-17.56-95.23-27.21-147.01-27.21-226.6,0-410.95,184.35-410.95,410.95s184.35,410.95,410.95,410.95,410.95-184.35,410.95-410.95c0-90.05-29.14-173.41-78.45-241.2Z"/><path d="M483.53,362.45c11.38-8.16,27.39-12.24,48.01-12.24,30.5,0,66.38,11.39,107.63,34.15l35.45-71.54c-22.35-14.6-45.34-25.88-68.96-33.84-23.64-7.95-53.07-11.92-88.3-11.92-44.69,2.15-80.46,15.69-107.31,40.6-26.86,24.92-40.28,57.79-40.28,98.6,0,27.94,6.55,51.14,19.66,69.61,13.1,18.48,28.68,32.66,46.73,42.54,18.05,9.89,40.6,20.2,67.67,30.93,45.97,18.05,68.96,39.32,68.96,63.81,0,18.91-7.31,32.55-21.91,40.92-14.61,8.38-31.8,12.57-51.56,12.57-16.76,0-35.67-3.86-56.71-11.6-21.06-7.73-39.75-17.61-56.07-29.65l-41.25,72.83c24.06,17.19,50.05,29.97,77.98,38.34,27.92,8.38,56.07,12.57,84.43,12.57,33.94,0,63.16-6.13,87.65-18.37,24.49-12.25,43.07-28.78,55.75-49.63,12.67-20.84,19.01-43.51,19.01-67.99,0-28.36-5.27-51.77-15.79-70.25-10.53-18.47-23.75-32.97-39.64-43.5-15.9-10.52-35.02-19.87-57.36-28.04-27.5-10.31-49.52-21.16-66.06-32.55-16.54-11.38-24.81-24.59-24.81-39.64,0-16.32,5.69-28.57,17.08-36.74Z"/></svg>