<?xml version="1.0" encoding="UTF-8"?><svg id="mobile" xmlns="http://www.w3.org/2000/svg" viewBox="0 0 1024 1024"><defs><style>.cls-1{fill:#0aeb85;}</style></defs><polygon points="933.27 579.09 907.81 579.09 907.81 501.7 863.89 549.94 822.43 502.64 822.43 579.09 796.98 579.09 796.98 433.9 864.24 510.65 933.27 434.84 933.27 579.09"/><path d="M280.37,551.53h-46.73l-11.49,27h-27.39l63.58-143.41h1.53l63.58,143.41h-32.17l-10.92-27ZM271.18,528.66l-13.6-33.56-14.17,33.56h27.77Z"/><circle class="cls-1" cx="596.32" cy="402.81" r="17.38"/><polygon points="493.36 513.41 460.7 435.93 426.88 435.93 492.2 579.69 557.51 435.93 524.08 435.93 493.36 513.41"/><path d="M131.46,462.89c3.43-2.46,8.25-3.69,14.46-3.69,9.19,0,20,3.43,32.42,10.29l10.68-21.55c-6.73-4.4-13.66-7.8-20.77-10.19-7.12-2.39-15.99-3.59-26.6-3.59-13.46.65-24.24,4.73-32.33,12.23-8.09,7.51-12.14,17.41-12.14,29.71,0,8.42,1.97,15.41,5.92,20.97,3.95,5.57,8.64,9.84,14.08,12.81,5.44,2.98,12.23,6.08,20.39,9.32,13.85,5.44,20.77,11.84,20.77,19.22,0,5.7-2.2,9.81-6.6,12.33-4.4,2.52-9.58,3.79-15.53,3.79-5.05,0-10.75-1.16-17.09-3.49-6.34-2.33-11.97-5.31-16.89-8.93l-12.43,21.94c7.25,5.18,15.08,9.03,23.49,11.55,8.41,2.53,16.89,3.79,25.44,3.79,10.22,0,19.03-1.85,26.41-5.53,7.38-3.69,12.98-8.67,16.79-14.95,3.82-6.28,5.73-13.11,5.73-20.48,0-8.54-1.59-15.6-4.76-21.16-3.17-5.56-7.15-9.93-11.94-13.11-4.79-3.17-10.55-5.99-17.28-8.45-8.28-3.11-14.92-6.37-19.9-9.81-4.98-3.43-7.48-7.41-7.48-11.94,0-4.92,1.71-8.61,5.15-11.07Z"/><polygon points="370.49 435.93 342.3 435.93 342.3 579.01 437.75 579.01 437.75 551.79 370.49 551.79 370.49 435.93"/><path d="M736.58,526.13c0,4.54-1.33,8.88-3.98,13.03-2.66,4.15-6.32,7.52-10.98,10.11-4.67,2.59-9.79,3.89-15.36,3.89-5.18,0-10.04-1.29-14.58-3.89-4.54-2.59-8.16-5.96-10.89-10.11-2.72-4.15-4.08-8.49-4.08-13.03v-90.2h-28.19v90.79c0,10.24,2.56,19.47,7.68,27.7,5.12,8.23,12.08,14.65,20.9,19.25,8.81,4.6,18.53,6.9,29.16,6.9s20.38-2.3,29.26-6.9c8.88-4.6,15.91-11.01,21.09-19.25,5.18-8.23,7.78-17.46,7.78-27.7v-90.79h-27.8v90.2Z"/><rect x="582.2" y="435.93" width="28.19" height="143.08"/></svg>